<svg xmlns="http://www.w3.org/2000/svg" width="200" height="42" viewBox="0 0 200 42" fill="none" role="img" aria-labelledby="title">
  <title id="title">Soni2</title>
  <g stroke="#F44868" stroke-linecap="round" stroke-linejoin="round">
    <path stroke-width="5" d="M6 12v16c0 4 6 4 6 0V9c0-5 8-5 8 0v23c0 5 8 5 8 0V21"/>
    <circle cx="6" cy="7" r="2.7" fill="#F44868" stroke="none"/>
    <circle cx="28" cy="35" r="2.7" fill="#F44868" stroke="none"/>
    <path stroke-width="4" d="M57 13h16a4 4 0 0 1 4 4v1a4 4 0 0 1-4 4H61a4 4 0 0 0-4 4v1a4 4 0 0 0 4 4h17"/>
    <rect x="88" y="13" width="24" height="18" rx="4.5" stroke-width="4"/>
    <path stroke-width="4" d="M121 31V13l26 18V13M157 13v18m-5-18h10m-10 18h10M176 13h16a4 4 0 0 1 4 4v1a4 4 0 0 1-4 4h-11a4 4 0 0 0-4 4v5h20"/>
  </g>
</svg>
